<?xml version="1.0" standalone="no"?>
<svg version="1.0" xmlns="http://www.w3.org/2000/svg"
 width="1200.000000pt" height="900.000000pt" viewBox="0 0 1200.000000 900.000000"
 preserveAspectRatio="xMidYMid meet">

<g transform="translate(0.000000,900.000000) scale(0.100000,-0.100000)"
fill="#000000" stroke="none">
<path d="M3826 7885 c-49 -17 -93 -59 -117 -110 -17 -38 -19 -80 -19 -722 l0
-683 200 0 200 0 0 560 0 560 2585 0 2585 0 2 -627 3 -628 200 0 200 0 0 756
0 756 -30 49 c-23 37 -44 56 -84 77 l-55 27 -2815 0 c-2365 -1 -2822 -3 -2855
-15z"/>
<path d="M784 6141 c-49 -22 -97 -78 -113 -130 -8 -28 -11 -392 -11 -1335 l0
-1296 2035 0 2035 0 0 1305 c0 1158 -2 1310 -16 1343 -19 47 -58 88 -106 113
-36 18 -87 19 -1910 19 -1800 0 -1875 -1 -1914 -19z m3536 -1366 l0 -985
-1625 0 -1625 0 0 985 0 985 1625 0 1625 0 0 -985z"/>
<path d="M8004 6021 c-53 -13 -103 -51 -132 -99 l-27 -47 -3 -1509 -2 -1509
24 -52 c25 -55 69 -95 125 -114 46 -15 2288 -16 2344 0 47 13 102 60 128 110
19 37 19 73 19 1549 0 1341 -2 1515 -15 1548 -20 47 -50 78 -100 105 l-40 22
-1145 2 c-630 0 -1159 -2 -1176 -6z m2076 -1666 l0 -1265 -915 0 -915 0 0
1265 0 1265 915 0 915 0 0 -1265z m-859 -1414 c32 -33 36 -58 14 -100 -37 -73
-155 -46 -155 36 0 43 15 72 43 83 40 16 68 10 98 -19z"/>
<path d="M10840 4581 c-19 -10 -48 -35 -65 -55 l-30 -38 -3 -830 c-2 -801 -2
-831 17 -873 13 -29 34 -53 62 -72 l43 -28 420 -3 c449 -3 471 -1 527 45 61
52 59 15 59 918 0 692 -2 830 -14 853 -19 36 -65 78 -99 91 -18 7 -178 11
-455 11 -397 0 -430 -1 -462 -19z m656 -128 c12 -47 -11 -53 -192 -53 -134 0
-165 3 -178 16 -9 8 -16 21 -16 28 0 32 24 36 202 36 l178 0 6 -27z m222 -785
l-3 -623 -407 -3 -408 -2 0 625 0 625 410 0 410 0 -2 -622z m-355 -760 c24
-28 21 -65 -8 -93 -42 -43 -106 -23 -121 37 -5 22 0 34 25 59 25 25 37 30 59
25 15 -4 35 -16 45 -28z"/>
<path d="M4944 4181 c-2 -2 -4 -94 -4 -203 l0 -198 1345 0 1345 0 0 200 0 200
-1341 2 c-737 2 -1343 1 -1345 -1z"/>
<path d="M6074 3493 c-55 -251 -163 -463 -357 -703 l-85 -105 986 -3 c542 -1
987 0 990 3 2 2 -36 55 -85 117 -195 244 -283 416 -344 671 l-23 97 -532 0
-533 0 -17 -77z"/>
<path d="M80 3031 c0 -78 5 -153 12 -172 20 -61 64 -114 120 -144 l53 -30
2410 -3 c2647 -2 2469 -6 2547 58 20 16 48 53 62 82 24 49 26 61 26 200 l0
148 -2615 0 -2615 0 0 -139z"/>
</g>
</svg>
